<?xml version="1.0" encoding="UTF-8" standalone="no"?>
<!-- Generator: Adobe Illustrator 19.0.0, SVG Export Plug-In . SVG Version: 6.00 Build 0)  -->

<svg
   xmlns:dc="http://purl.org/dc/elements/1.1/"
   xmlns:cc="http://creativecommons.org/ns#"
   xmlns:rdf="http://www.w3.org/1999/02/22-rdf-syntax-ns#"
   xmlns:svg="http://www.w3.org/2000/svg"
   xmlns="http://www.w3.org/2000/svg"
   xmlns:sodipodi="http://sodipodi.sourceforge.net/DTD/sodipodi-0.dtd"
   xmlns:inkscape="http://www.inkscape.org/namespaces/inkscape"
   version="1.1"
   id="Layer_1"
   x="0px"
   y="0px"
   viewBox="0 0 512 512"
   style="enable-background:new 0 0 512 512;"
   xml:space="preserve"
   sodipodi:docname="thermometer-weather-svgrepo-com.svg"
   inkscape:version="0.92.1 r15371"><metadata
     id="metadata49"><rdf:RDF><cc:Work
         rdf:about=""><dc:format>image/svg+xml</dc:format><dc:type
           rdf:resource="http://purl.org/dc/dcmitype/StillImage" /><dc:title></dc:title></cc:Work></rdf:RDF></metadata><defs
     id="defs47" /><sodipodi:namedview
     pagecolor="#ffffff"
     bordercolor="#666666"
     borderopacity="1"
     objecttolerance="10"
     gridtolerance="10"
     guidetolerance="10"
     inkscape:pageopacity="0"
     inkscape:pageshadow="2"
     inkscape:window-width="1920"
     inkscape:window-height="1016"
     id="namedview45"
     showgrid="false"
     inkscape:snap-intersection-paths="true"
     inkscape:snap-center="true"
     inkscape:snap-smooth-nodes="true"
     inkscape:zoom="0.65186406"
     inkscape:cx="52.828569"
     inkscape:cy="154.36406"
     inkscape:window-x="1920"
     inkscape:window-y="27"
     inkscape:window-maximized="1"
     inkscape:current-layer="Layer_1" /><circle
     style="fill:#59cc81;fill-opacity:1;stroke:none"
     cx="256"
     cy="256"
     r="256"
     id="circle2" /><path
     style="fill:#33a65b;fill-opacity:1"
     d="M283.008,88.207l-14.653,284.157l7.913,7.913L256,442.613l61.849,61.847  c93.896-23.297,167.315-98.413,188.164-193.252L283.008,88.207z"
     id="path4" /><path
     style="fill:#273B7A;"
     d="M292.633,305.907V112.916c0-20.232-16.401-36.633-36.633-36.633s-36.633,16.401-36.633,36.633  v192.991c-21.894,12.669-36.633,36.326-36.633,63.44c0,40.464,32.802,73.266,73.266,73.266s73.266-32.802,73.266-73.266  C329.266,342.233,314.525,318.576,292.633,305.907z"
     id="path6" /><path
     style="fill:#121149;"
     d="M292.633,305.907V112.916c0-20.232-16.401-36.633-36.633-36.633c-0.193,0-0.381,0.026-0.574,0.029  v366.287c0.191,0.002,0.381,0.014,0.574,0.014c40.464,0,73.266-32.802,73.266-73.266  C329.266,342.233,314.525,318.576,292.633,305.907z"
     id="path8" /><path
     style="fill:#71e2ef"
     d="m 274.501,331.433 0,-114.18092 c 0,-10.218 -8.283,-18.501 -18.501,-18.501 -10.218,0 -18.501,8.283 -18.501,18.501 l 0,114.18092 c -14.022,6.856 -23.681,21.254 -23.681,37.914 0,23.297 18.885,42.184 42.184,42.184 23.299,0 42.184,-18.885 42.184,-42.184 -0.004,-16.66 -9.663,-31.06 -23.685,-37.914 z"
     id="path10"
     inkscape:connector-curvature="0"
     sodipodi:nodetypes="cssscsscc" /><path
     style="fill:#38c6d9"
     d="M 274.501,331.433 V 217.25208 c -0.11619,-11.85043 -9.23942,-18.50272 -19.075,-18.49227 V 411.517 c 0.191,0.002 0.381,0.016 0.574,0.016 23.297,0 42.184,-18.887 42.184,-42.184 -0.002,-16.662 -9.661,-31.062 -23.683,-37.916 z"
     id="path12"
     inkscape:connector-curvature="0"
     sodipodi:nodetypes="ccccscc" /><g
     id="g14" /><g
     id="g16" /><g
     id="g18" /><g
     id="g20" /><g
     id="g22" /><g
     id="g24" /><g
     id="g26" /><g
     id="g28" /><g
     id="g30" /><g
     id="g32" /><g
     id="g34" /><g
     id="g36" /><g
     id="g38" /><g
     id="g40" /><g
     id="g42" /></svg>